<svg xmlns="http://www.w3.org/2000/svg" xmlns:xlink="http://www.w3.org/1999/xlink" width="500" zoomAndPan="magnify" viewBox="0 0 375 374.999991" height="500" preserveAspectRatio="xMidYMid meet" version="1.0"><defs><clipPath id="02d5456a01"><path d="M 10.625 10.628906 L 364.371094 10.628906 L 364.371094 364.371094 L 10.625 364.371094 Z M 10.625 10.628906 " clip-rule="nonzero"/></clipPath><clipPath id="9bc8447943"><path d="M 364.371094 104.378906 L 364.371094 270.621094 C 364.371094 295.488281 354.492188 319.332031 336.910156 336.914062 C 319.328125 354.496094 295.484375 364.371094 270.621094 364.371094 L 104.375 364.371094 C 79.511719 364.371094 55.664062 354.496094 38.082031 336.914062 C 20.5 319.332031 10.625 295.488281 10.625 270.621094 L 10.625 104.378906 C 10.625 79.511719 20.5 55.667969 38.082031 38.085938 C 55.664062 20.503906 79.511719 10.628906 104.375 10.628906 L 270.621094 10.628906 C 295.484375 10.628906 319.328125 20.503906 336.910156 38.085938 C 354.492188 55.667969 364.371094 79.511719 364.371094 104.378906 Z M 364.371094 104.378906 " clip-rule="nonzero"/></clipPath><clipPath id="a11c29f449"><path d="M 0.625 0.628906 L 354.371094 0.628906 L 354.371094 354.371094 L 0.625 354.371094 Z M 0.625 0.628906 " clip-rule="nonzero"/></clipPath><clipPath id="774f5be6a5"><path d="M 354.371094 94.378906 L 354.371094 260.621094 C 354.371094 285.488281 344.492188 309.332031 326.910156 326.914062 C 309.328125 344.496094 285.484375 354.371094 260.621094 354.371094 L 94.375 354.371094 C 69.511719 354.371094 45.664062 344.496094 28.082031 326.914062 C 10.5 309.332031 0.625 285.488281 0.625 260.621094 L 0.625 94.378906 C 0.625 69.511719 10.5 45.667969 28.082031 28.085938 C 45.664062 10.503906 69.511719 0.628906 94.375 0.628906 L 260.621094 0.628906 C 285.484375 0.628906 309.328125 10.503906 326.910156 28.085938 C 344.492188 45.667969 354.371094 69.511719 354.371094 94.378906 Z M 354.371094 94.378906 " clip-rule="nonzero"/></clipPath><linearGradient x1="0" gradientTransform="matrix(0, 1.381816, -1.381816, 0, 354.369668, 0.627499)" y1="128" x2="255.999998" gradientUnits="userSpaceOnUse" y2="128" id="65449771c3"><stop stop-opacity="1" stop-color="rgb(0.389099%, 48.629761%, 85.488892%)" offset="0"/><stop stop-opacity="1" stop-color="rgb(0.387573%, 48.506165%, 85.375977%)" offset="0.0078125"/><stop stop-opacity="1" stop-color="rgb(0.384521%, 48.260498%, 85.148621%)" offset="0.015625"/><stop stop-opacity="1" stop-color="rgb(0.38147%, 48.016357%, 84.921265%)" offset="0.0234375"/><stop stop-opacity="1" stop-color="rgb(0.378418%, 47.770691%, 84.695435%)" offset="0.03125"/><stop stop-opacity="1" stop-color="rgb(0.375366%, 47.525024%, 84.468079%)" offset="0.0390625"/><stop stop-opacity="1" stop-color="rgb(0.372314%, 47.280884%, 84.242249%)" offset="0.046875"/><stop stop-opacity="1" stop-color="rgb(0.369263%, 47.035217%, 84.014893%)" offset="0.0546875"/><stop stop-opacity="1" stop-color="rgb(0.366211%, 46.789551%, 83.789062%)" offset="0.0625"/><stop stop-opacity="1" stop-color="rgb(0.363159%, 46.54541%, 83.561707%)" offset="0.0703125"/><stop stop-opacity="1" stop-color="rgb(0.360107%, 46.299744%, 83.334351%)" offset="0.078125"/><stop stop-opacity="1" stop-color="rgb(0.357056%, 46.054077%, 83.108521%)" offset="0.0859375"/><stop stop-opacity="1" stop-color="rgb(0.354004%, 45.809937%, 82.881165%)" offset="0.09375"/><stop stop-opacity="1" stop-color="rgb(0.350952%, 45.56427%, 82.655334%)" offset="0.101562"/><stop stop-opacity="1" stop-color="rgb(0.3479%, 45.318604%, 82.427979%)" offset="0.109375"/><stop stop-opacity="1" stop-color="rgb(0.344849%, 45.074463%, 82.200623%)" offset="0.117188"/><stop stop-opacity="1" stop-color="rgb(0.341797%, 44.828796%, 81.974792%)" offset="0.125"/><stop stop-opacity="1" stop-color="rgb(0.338745%, 44.58313%, 81.747437%)" offset="0.132812"/><stop stop-opacity="1" stop-color="rgb(0.335693%, 44.338989%, 81.521606%)" offset="0.140625"/><stop stop-opacity="1" stop-color="rgb(0.332642%, 44.093323%, 81.29425%)" offset="0.148437"/><stop stop-opacity="1" stop-color="rgb(0.32959%, 43.847656%, 81.06842%)" offset="0.15625"/><stop stop-opacity="1" stop-color="rgb(0.326538%, 43.603516%, 80.841064%)" offset="0.164063"/><stop stop-opacity="1" stop-color="rgb(0.323486%, 43.357849%, 80.613708%)" offset="0.171875"/><stop stop-opacity="1" stop-color="rgb(0.320435%, 43.112183%, 80.387878%)" offset="0.179688"/><stop stop-opacity="1" stop-color="rgb(0.317383%, 42.868042%, 80.160522%)" offset="0.1875"/><stop stop-opacity="1" stop-color="rgb(0.314331%, 42.622375%, 79.934692%)" offset="0.195312"/><stop stop-opacity="1" stop-color="rgb(0.311279%, 42.376709%, 79.707336%)" offset="0.203125"/><stop stop-opacity="1" stop-color="rgb(0.308228%, 42.132568%, 79.481506%)" offset="0.210937"/><stop stop-opacity="1" stop-color="rgb(0.305176%, 41.886902%, 79.25415%)" offset="0.21875"/><stop stop-opacity="1" stop-color="rgb(0.302124%, 41.641235%, 79.026794%)" offset="0.226563"/><stop stop-opacity="1" stop-color="rgb(0.299072%, 41.397095%, 78.800964%)" offset="0.234375"/><stop stop-opacity="1" stop-color="rgb(0.296021%, 41.151428%, 78.573608%)" offset="0.242188"/><stop stop-opacity="1" stop-color="rgb(0.292969%, 40.905762%, 78.347778%)" offset="0.25"/><stop stop-opacity="1" stop-color="rgb(0.289917%, 40.661621%, 78.120422%)" offset="0.257812"/><stop stop-opacity="1" stop-color="rgb(0.286865%, 40.415955%, 77.893066%)" offset="0.265625"/><stop stop-opacity="1" stop-color="rgb(0.283813%, 40.170288%, 77.667236%)" offset="0.273438"/><stop stop-opacity="1" stop-color="rgb(0.280762%, 39.926147%, 77.43988%)" offset="0.28125"/><stop stop-opacity="1" stop-color="rgb(0.27771%, 39.680481%, 77.21405%)" offset="0.289062"/><stop stop-opacity="1" stop-color="rgb(0.274658%, 39.434814%, 76.986694%)" offset="0.296875"/><stop stop-opacity="1" stop-color="rgb(0.271606%, 39.190674%, 76.760864%)" offset="0.304687"/><stop stop-opacity="1" stop-color="rgb(0.268555%, 38.945007%, 76.533508%)" offset="0.3125"/><stop stop-opacity="1" stop-color="rgb(0.265503%, 38.699341%, 76.306152%)" offset="0.320313"/><stop stop-opacity="1" stop-color="rgb(0.262451%, 38.4552%, 76.080322%)" offset="0.328125"/><stop stop-opacity="1" stop-color="rgb(0.259399%, 38.209534%, 75.852966%)" offset="0.335938"/><stop stop-opacity="1" stop-color="rgb(0.256348%, 37.963867%, 75.627136%)" offset="0.34375"/><stop stop-opacity="1" stop-color="rgb(0.253296%, 37.719727%, 75.39978%)" offset="0.351562"/><stop stop-opacity="1" stop-color="rgb(0.250244%, 37.47406%, 75.172424%)" offset="0.359375"/><stop stop-opacity="1" stop-color="rgb(0.247192%, 37.228394%, 74.946594%)" offset="0.367188"/><stop stop-opacity="1" stop-color="rgb(0.244141%, 36.984253%, 74.719238%)" offset="0.375"/><stop stop-opacity="1" stop-color="rgb(0.241089%, 36.738586%, 74.493408%)" offset="0.382812"/><stop stop-opacity="1" stop-color="rgb(0.238037%, 36.49292%, 74.266052%)" offset="0.390625"/><stop stop-opacity="1" stop-color="rgb(0.234985%, 36.248779%, 74.040222%)" offset="0.398438"/><stop stop-opacity="1" stop-color="rgb(0.231934%, 36.003113%, 73.812866%)" offset="0.40625"/><stop stop-opacity="1" stop-color="rgb(0.228882%, 35.757446%, 73.58551%)" offset="0.414062"/><stop stop-opacity="1" stop-color="rgb(0.22583%, 35.513306%, 73.35968%)" offset="0.421875"/><stop stop-opacity="1" stop-color="rgb(0.222778%, 35.267639%, 73.132324%)" offset="0.429687"/><stop stop-opacity="1" stop-color="rgb(0.219727%, 35.021973%, 72.906494%)" offset="0.4375"/><stop stop-opacity="1" stop-color="rgb(0.216675%, 34.777832%, 72.679138%)" offset="0.445313"/><stop stop-opacity="1" stop-color="rgb(0.213623%, 34.532166%, 72.451782%)" offset="0.453125"/><stop stop-opacity="1" stop-color="rgb(0.210571%, 34.286499%, 72.225952%)" offset="0.460938"/><stop stop-opacity="1" stop-color="rgb(0.20752%, 34.042358%, 71.998596%)" offset="0.46875"/><stop stop-opacity="1" stop-color="rgb(0.204468%, 33.796692%, 71.772766%)" offset="0.476562"/><stop stop-opacity="1" stop-color="rgb(0.201416%, 33.551025%, 71.54541%)" offset="0.484375"/><stop stop-opacity="1" stop-color="rgb(0.198364%, 33.306885%, 71.31958%)" offset="0.492188"/><stop stop-opacity="1" stop-color="rgb(0.195312%, 33.061218%, 71.092224%)" offset="0.5"/><stop stop-opacity="1" stop-color="rgb(0.192261%, 32.815552%, 70.864868%)" offset="0.507812"/><stop stop-opacity="1" stop-color="rgb(0.189209%, 32.571411%, 70.639038%)" offset="0.515625"/><stop stop-opacity="1" stop-color="rgb(0.186157%, 32.325745%, 70.411682%)" offset="0.523438"/><stop stop-opacity="1" stop-color="rgb(0.183105%, 32.080078%, 70.185852%)" offset="0.53125"/><stop stop-opacity="1" stop-color="rgb(0.180054%, 31.835938%, 69.958496%)" offset="0.539062"/><stop stop-opacity="1" stop-color="rgb(0.177002%, 31.590271%, 69.73114%)" offset="0.546875"/><stop stop-opacity="1" stop-color="rgb(0.17395%, 31.344604%, 69.50531%)" offset="0.554688"/><stop stop-opacity="1" stop-color="rgb(0.170898%, 31.100464%, 69.277954%)" offset="0.5625"/><stop stop-opacity="1" stop-color="rgb(0.167847%, 30.854797%, 69.052124%)" offset="0.570312"/><stop stop-opacity="1" stop-color="rgb(0.164795%, 30.609131%, 68.824768%)" offset="0.578125"/><stop stop-opacity="1" stop-color="rgb(0.161743%, 30.36499%, 68.598938%)" offset="0.585937"/><stop stop-opacity="1" stop-color="rgb(0.158691%, 30.119324%, 68.371582%)" offset="0.59375"/><stop stop-opacity="1" stop-color="rgb(0.15564%, 29.873657%, 68.144226%)" offset="0.601562"/><stop stop-opacity="1" stop-color="rgb(0.152588%, 29.629517%, 67.918396%)" offset="0.609375"/><stop stop-opacity="1" stop-color="rgb(0.149536%, 29.38385%, 67.69104%)" offset="0.617188"/><stop stop-opacity="1" stop-color="rgb(0.146484%, 29.138184%, 67.46521%)" offset="0.625"/><stop stop-opacity="1" stop-color="rgb(0.143433%, 28.894043%, 67.237854%)" offset="0.632812"/><stop stop-opacity="1" stop-color="rgb(0.140381%, 28.648376%, 67.010498%)" offset="0.640625"/><stop stop-opacity="1" stop-color="rgb(0.137329%, 28.40271%, 66.784668%)" offset="0.648438"/><stop stop-opacity="1" stop-color="rgb(0.134277%, 28.158569%, 66.557312%)" offset="0.65625"/><stop stop-opacity="1" stop-color="rgb(0.131226%, 27.912903%, 66.331482%)" offset="0.664063"/><stop stop-opacity="1" stop-color="rgb(0.128174%, 27.667236%, 66.104126%)" offset="0.671875"/><stop stop-opacity="1" stop-color="rgb(0.125122%, 27.423096%, 65.878296%)" offset="0.679688"/><stop stop-opacity="1" stop-color="rgb(0.12207%, 27.177429%, 65.65094%)" offset="0.6875"/><stop stop-opacity="1" stop-color="rgb(0.119019%, 26.931763%, 65.423584%)" offset="0.695312"/><stop stop-opacity="1" stop-color="rgb(0.115967%, 26.687622%, 65.197754%)" offset="0.703125"/><stop stop-opacity="1" stop-color="rgb(0.112915%, 26.441956%, 64.970398%)" offset="0.710938"/><stop stop-opacity="1" stop-color="rgb(0.109863%, 26.196289%, 64.744568%)" offset="0.71875"/><stop stop-opacity="1" stop-color="rgb(0.106812%, 25.952148%, 64.517212%)" offset="0.726562"/><stop stop-opacity="1" stop-color="rgb(0.10376%, 25.706482%, 64.289856%)" offset="0.734375"/><stop stop-opacity="1" stop-color="rgb(0.100708%, 25.460815%, 64.064026%)" offset="0.742188"/><stop stop-opacity="1" stop-color="rgb(0.0976562%, 25.216675%, 63.83667%)" offset="0.75"/><stop stop-opacity="1" stop-color="rgb(0.0946045%, 24.971008%, 63.61084%)" offset="0.757812"/><stop stop-opacity="1" stop-color="rgb(0.0915527%, 24.725342%, 63.383484%)" offset="0.765625"/><stop stop-opacity="1" stop-color="rgb(0.088501%, 24.481201%, 63.157654%)" offset="0.773438"/><stop stop-opacity="1" stop-color="rgb(0.0854492%, 24.235535%, 62.930298%)" offset="0.78125"/><stop stop-opacity="1" stop-color="rgb(0.0823975%, 23.989868%, 62.702942%)" offset="0.789062"/><stop stop-opacity="1" stop-color="rgb(0.0793457%, 23.745728%, 62.477112%)" offset="0.796875"/><stop stop-opacity="1" stop-color="rgb(0.0762939%, 23.500061%, 62.249756%)" offset="0.804688"/><stop stop-opacity="1" stop-color="rgb(0.0732422%, 23.254395%, 62.023926%)" offset="0.8125"/><stop stop-opacity="1" stop-color="rgb(0.0701904%, 23.010254%, 61.79657%)" offset="0.820312"/><stop stop-opacity="1" stop-color="rgb(0.0671387%, 22.764587%, 61.569214%)" offset="0.828125"/><stop stop-opacity="1" stop-color="rgb(0.0640869%, 22.518921%, 61.343384%)" offset="0.835937"/><stop stop-opacity="1" stop-color="rgb(0.0610352%, 22.27478%, 61.116028%)" offset="0.84375"/><stop stop-opacity="1" stop-color="rgb(0.0579834%, 22.029114%, 60.890198%)" offset="0.851562"/><stop stop-opacity="1" stop-color="rgb(0.0549316%, 21.783447%, 60.662842%)" offset="0.859375"/><stop stop-opacity="1" stop-color="rgb(0.0518799%, 21.539307%, 60.437012%)" offset="0.867188"/><stop stop-opacity="1" stop-color="rgb(0.0488281%, 21.29364%, 60.209656%)" offset="0.875"/><stop stop-opacity="1" stop-color="rgb(0.0457764%, 21.047974%, 59.9823%)" offset="0.882812"/><stop stop-opacity="1" stop-color="rgb(0.0427246%, 20.803833%, 59.75647%)" offset="0.890625"/><stop stop-opacity="1" stop-color="rgb(0.0396729%, 20.558167%, 59.529114%)" offset="0.898438"/><stop stop-opacity="1" stop-color="rgb(0.0366211%, 20.3125%, 59.303284%)" offset="0.90625"/><stop stop-opacity="1" stop-color="rgb(0.0335693%, 20.068359%, 59.075928%)" offset="0.914063"/><stop stop-opacity="1" stop-color="rgb(0.0305176%, 19.822693%, 58.850098%)" offset="0.921875"/><stop stop-opacity="1" stop-color="rgb(0.0274658%, 19.577026%, 58.622742%)" offset="0.929688"/><stop stop-opacity="1" stop-color="rgb(0.0244141%, 19.332886%, 58.395386%)" offset="0.9375"/><stop stop-opacity="1" stop-color="rgb(0.0213623%, 19.087219%, 58.169556%)" offset="0.945312"/><stop stop-opacity="1" stop-color="rgb(0.0183105%, 18.841553%, 57.9422%)" offset="0.953125"/><stop stop-opacity="1" stop-color="rgb(0.0152588%, 18.597412%, 57.71637%)" offset="0.960938"/><stop stop-opacity="1" stop-color="rgb(0.012207%, 18.351746%, 57.489014%)" offset="0.96875"/><stop stop-opacity="1" stop-color="rgb(0.00915527%, 18.106079%, 57.261658%)" offset="0.976562"/><stop stop-opacity="1" stop-color="rgb(0.00610352%, 17.861938%, 57.035828%)" offset="0.984375"/><stop stop-opacity="1" stop-color="rgb(0.00305176%, 17.616272%, 56.808472%)" offset="0.992188"/><stop stop-opacity="1" stop-color="rgb(0%, 17.370605%, 56.582642%)" offset="1"/></linearGradient><clipPath id="665ed53c75"><rect x="0" width="355" y="0" height="355"/></clipPath><clipPath id="3430fa0a3f"><path d="M 10.371094 10.628906 L 364.371094 10.628906 L 364.371094 364.628906 L 10.371094 364.628906 Z M 10.371094 10.628906 " clip-rule="nonzero"/></clipPath><clipPath id="914d148f4a"><path d="M 364.371094 104.375 L 364.371094 270.621094 C 364.371094 295.484375 354.492188 319.328125 336.910156 336.910156 C 319.328125 354.492188 295.484375 364.371094 270.621094 364.371094 L 104.375 364.371094 C 79.511719 364.371094 55.667969 354.492188 38.085938 336.910156 C 20.503906 319.328125 10.628906 295.484375 10.628906 270.621094 L 10.628906 104.375 C 10.628906 79.511719 20.503906 55.667969 38.085938 38.085938 C 55.667969 20.503906 79.511719 10.628906 104.375 10.628906 L 270.621094 10.628906 C 295.484375 10.628906 319.328125 20.503906 336.910156 38.085938 C 354.492188 55.667969 364.371094 79.511719 364.371094 104.375 Z M 364.371094 104.375 " clip-rule="nonzero"/></clipPath><clipPath id="81ec971bc5"><path d="M 71 54 L 304 54 L 304 318 L 71 318 Z M 71 54 " clip-rule="nonzero"/></clipPath><clipPath id="48163b72bf"><path d="M 186.296875 54.285156 C 187.355469 54.285156 188.410156 54.269531 189.46875 54.253906 C 200.976562 54.175781 212.03125 57.171875 222.269531 62.34375 L 223.3125 62.871094 C 232.328125 67.480469 240.433594 73.675781 246.566406 81.785156 L 247.636719 83.167969 C 261.273438 101.199219 262.832031 123.925781 264.351562 145.675781 C 266.910156 182.25 274.78125 215.09375 295.792969 245.71875 C 303.707031 257.253906 303.707031 257.253906 303.113281 263.796875 C 302.230469 267.59375 299.996094 270.75 296.742188 272.898438 C 289.574219 276.714844 282.644531 275.101562 275.214844 273.003906 C 269.675781 271.460938 263.941406 270.703125 258.496094 273.074219 L 257.347656 273.566406 C 249.816406 277.234375 243.183594 285.289062 238.203125 291.875 C 237.132812 293.136719 235.949219 294.152344 234.691406 295.222656 C 233.792969 296.011719 232.980469 296.839844 232.15625 297.707031 C 223.820312 306.121094 212.496094 312.898438 201.0625 315.925781 L 200.171875 316.164062 C 185.71875 319.773438 170.566406 316.359375 157.769531 309.300781 L 156.570312 308.644531 C 151.53125 305.746094 146.992188 302.214844 142.75 298.253906 C 142.171875 297.757812 141.59375 297.257812 141.007812 296.765625 C 137.492188 293.699219 134.296875 290.3125 131.265625 286.769531 C 122.265625 276.28125 122.265625 276.28125 109.617188 271.75 L 108.609375 271.664062 C 104.066406 271.453125 99.707031 272.847656 95.363281 274.027344 C 89.726562 275.539062 84.292969 276.179688 78.890625 273.375 C 75.246094 271.042969 72.988281 268.753906 71.761719 264.515625 C 70.9375 257.597656 74.503906 252.710938 78.335938 247.234375 C 87.015625 234.773438 93.910156 221.988281 99.011719 207.6875 L 99.4375 206.527344 C 104.09375 193.746094 106.644531 180.046875 108.273438 166.566406 L 108.382812 165.628906 C 109.347656 157.636719 109.960938 149.617188 110.578125 141.589844 C 112.558594 115.738281 116.449219 90.28125 137.222656 72.378906 C 142.386719 68.042969 148.015625 64.390625 154.121094 61.53125 C 155.171875 61.054688 155.171875 61.054688 156 60.136719 C 156.824219 59.835938 156.824219 59.835938 157.851562 59.554688 C 159.769531 59.015625 161.632812 58.390625 163.511719 57.734375 C 166.03125 56.875 168.566406 56.191406 171.160156 55.609375 L 172.121094 55.390625 C 176.8125 54.378906 181.515625 54.296875 186.296875 54.285156 M 207.25 114.03125 C 203.925781 118.566406 203.113281 123.109375 203.714844 128.613281 C 204.765625 133.085938 207.5 136.730469 211.308594 139.269531 C 215.242188 140.171875 219.082031 140.238281 222.628906 138.15625 C 226.3125 135.453125 228.164062 131.75 228.894531 127.285156 C 229.304688 122.199219 228.117188 117.632812 224.921875 113.59375 C 222.574219 111.453125 220.089844 110.445312 216.96875 110.058594 L 215.863281 109.917969 C 212.535156 110.335938 209.625 111.640625 207.25 114.03125 M 149.375 113.59375 C 146.148438 117.324219 145.125 121.253906 145.246094 126.125 C 145.632812 130.175781 146.824219 134.125 149.816406 137.007812 C 153.347656 139.679688 156.472656 139.992188 160.863281 139.65625 C 163.835938 138.9375 166.097656 137.21875 167.929688 134.800781 C 170.453125 130.484375 171.242188 125.652344 170 120.824219 C 168.820312 116.871094 166.882812 113.265625 163.15625 111.1875 C 158.179688 109.023438 153.386719 110.113281 149.375 113.59375 M 170.710938 165.339844 C 167.792969 168.992188 165.671875 173.015625 164.839844 177.648438 L 164.632812 178.699219 C 163.628906 185.503906 165.789062 191.917969 169.765625 197.363281 C 170.316406 198.074219 170.878906 198.773438 171.453125 199.464844 L 172.296875 200.484375 L 173.0625 201.371094 C 174.886719 204.40625 173.789062 207.566406 173.015625 210.78125 L 172.65625 212.316406 C 172.28125 213.933594 171.902344 215.546875 171.519531 217.164062 C 171.144531 218.773438 170.765625 220.386719 170.390625 222 C 170.15625 223.003906 169.921875 224.003906 169.683594 225.007812 C 168.234375 230.371094 168.234375 230.371094 169.699219 235.523438 C 171.601562 237.535156 173.933594 238.066406 176.617188 238.253906 C 177.96875 238.289062 179.320312 238.300781 180.671875 238.292969 L 182.171875 238.292969 C 183.214844 238.296875 184.257812 238.292969 185.304688 238.289062 C 186.894531 238.285156 188.480469 238.289062 190.070312 238.292969 C 191.085938 238.292969 192.109375 238.292969 193.125 238.292969 L 194.550781 238.296875 C 199.671875 238.308594 199.671875 238.308594 204.160156 236.132812 L 204.902344 235.53125 C 206.304688 233.375 205.964844 230.9375 205.488281 228.539062 C 205.269531 227.550781 205.042969 226.566406 204.804688 225.582031 L 204.449219 223.996094 C 204.074219 222.320312 203.6875 220.652344 203.300781 218.984375 C 202.917969 217.316406 202.535156 215.648438 202.15625 213.980469 C 201.921875 212.941406 201.683594 211.90625 201.441406 210.871094 C 199.933594 204.210938 199.933594 204.210938 201.285156 201.507812 C 201.902344 200.765625 202.535156 200.03125 203.203125 199.339844 C 207.621094 194.671875 209.84375 188.632812 210.039062 182.207031 C 209.746094 175.367188 207.117188 168.648438 202.09375 163.902344 C 192.484375 156.144531 179.371094 156.054688 170.710938 165.339844 " clip-rule="nonzero"/></clipPath><linearGradient x1="0" gradientTransform="matrix(231.700324, 0, 0, 263.364224, 71.642131, 54.253789)" y1="-0.000294163" x2="0" gradientUnits="userSpaceOnUse" y2="1.008177" id="aa742e602c"><stop stop-opacity="1" stop-color="rgb(28.62854%, 96.859741%, 99.609375%)" offset="0"/><stop stop-opacity="1" stop-color="rgb(28.527832%, 96.699524%, 99.60022%)" offset="0.0078125"/><stop stop-opacity="1" stop-color="rgb(28.321838%, 96.374512%, 99.581909%)" offset="0.015625"/><stop stop-opacity="1" stop-color="rgb(28.111267%, 96.044922%, 99.563599%)" offset="0.0234375"/><stop stop-opacity="1" stop-color="rgb(27.900696%, 95.713806%, 99.545288%)" offset="0.03125"/><stop stop-opacity="1" stop-color="rgb(27.69165%, 95.38269%, 99.525452%)" offset="0.0390625"/><stop stop-opacity="1" stop-color="rgb(27.481079%, 95.053101%, 99.507141%)" offset="0.046875"/><stop stop-opacity="1" stop-color="rgb(27.270508%, 94.721985%, 99.488831%)" offset="0.0546875"/><stop stop-opacity="1" stop-color="rgb(27.061462%, 94.392395%, 99.47052%)" offset="0.0625"/><stop stop-opacity="1" stop-color="rgb(26.850891%, 94.061279%, 99.452209%)" offset="0.0703125"/><stop stop-opacity="1" stop-color="rgb(26.64032%, 93.730164%, 99.433899%)" offset="0.078125"/><stop stop-opacity="1" stop-color="rgb(26.431274%, 93.400574%, 99.414062%)" offset="0.0859375"/><stop stop-opacity="1" stop-color="rgb(26.220703%, 93.069458%, 99.395752%)" offset="0.09375"/><stop stop-opacity="1" stop-color="rgb(26.010132%, 92.738342%, 99.377441%)" offset="0.101562"/><stop stop-opacity="1" stop-color="rgb(25.799561%, 92.408752%, 99.359131%)" offset="0.109375"/><stop stop-opacity="1" stop-color="rgb(25.590515%, 92.077637%, 99.34082%)" offset="0.117187"/><stop stop-opacity="1" stop-color="rgb(25.379944%, 91.746521%, 99.320984%)" offset="0.125"/><stop stop-opacity="1" stop-color="rgb(25.169373%, 91.416931%, 99.302673%)" offset="0.132812"/><stop stop-opacity="1" stop-color="rgb(24.960327%, 91.085815%, 99.284363%)" offset="0.140625"/><stop stop-opacity="1" stop-color="rgb(24.749756%, 90.7547%, 99.266052%)" offset="0.148437"/><stop stop-opacity="1" stop-color="rgb(24.539185%, 90.42511%, 99.247742%)" offset="0.15625"/><stop stop-opacity="1" stop-color="rgb(24.328613%, 90.093994%, 99.227905%)" offset="0.164062"/><stop stop-opacity="1" stop-color="rgb(24.119568%, 89.762878%, 99.209595%)" offset="0.171875"/><stop stop-opacity="1" stop-color="rgb(23.908997%, 89.433289%, 99.191284%)" offset="0.179687"/><stop stop-opacity="1" stop-color="rgb(23.698425%, 89.102173%, 99.172974%)" offset="0.1875"/><stop stop-opacity="1" stop-color="rgb(23.48938%, 88.771057%, 99.154663%)" offset="0.195312"/><stop stop-opacity="1" stop-color="rgb(23.278809%, 88.441467%, 99.136353%)" offset="0.203125"/><stop stop-opacity="1" stop-color="rgb(23.068237%, 88.110352%, 99.116516%)" offset="0.210937"/><stop stop-opacity="1" stop-color="rgb(22.859192%, 87.779236%, 99.098206%)" offset="0.21875"/><stop stop-opacity="1" stop-color="rgb(22.648621%, 87.449646%, 99.079895%)" offset="0.226562"/><stop stop-opacity="1" stop-color="rgb(22.438049%, 87.11853%, 99.061584%)" offset="0.234375"/><stop stop-opacity="1" stop-color="rgb(22.227478%, 86.787415%, 99.043274%)" offset="0.242187"/><stop stop-opacity="1" stop-color="rgb(22.018433%, 86.457825%, 99.023438%)" offset="0.25"/><stop stop-opacity="1" stop-color="rgb(21.807861%, 86.126709%, 99.005127%)" offset="0.257812"/><stop stop-opacity="1" stop-color="rgb(21.59729%, 85.795593%, 98.986816%)" offset="0.265625"/><stop stop-opacity="1" stop-color="rgb(21.388245%, 85.466003%, 98.968506%)" offset="0.273437"/><stop stop-opacity="1" stop-color="rgb(21.177673%, 85.134888%, 98.950195%)" offset="0.28125"/><stop stop-opacity="1" stop-color="rgb(20.967102%, 84.805298%, 98.930359%)" offset="0.289062"/><stop stop-opacity="1" stop-color="rgb(20.756531%, 84.474182%, 98.912048%)" offset="0.296875"/><stop stop-opacity="1" stop-color="rgb(20.547485%, 84.143066%, 98.893738%)" offset="0.304687"/><stop stop-opacity="1" stop-color="rgb(20.336914%, 83.813477%, 98.875427%)" offset="0.3125"/><stop stop-opacity="1" stop-color="rgb(20.126343%, 83.482361%, 98.857117%)" offset="0.320312"/><stop stop-opacity="1" stop-color="rgb(19.917297%, 83.151245%, 98.838806%)" offset="0.328125"/><stop stop-opacity="1" stop-color="rgb(19.706726%, 82.821655%, 98.81897%)" offset="0.335937"/><stop stop-opacity="1" stop-color="rgb(19.496155%, 82.49054%, 98.800659%)" offset="0.34375"/><stop stop-opacity="1" stop-color="rgb(19.285583%, 82.159424%, 98.782349%)" offset="0.351562"/><stop stop-opacity="1" stop-color="rgb(19.076538%, 81.829834%, 98.764038%)" offset="0.359375"/><stop stop-opacity="1" stop-color="rgb(18.865967%, 81.498718%, 98.745728%)" offset="0.367187"/><stop stop-opacity="1" stop-color="rgb(18.655396%, 81.167603%, 98.725891%)" offset="0.375"/><stop stop-opacity="1" stop-color="rgb(18.44635%, 80.838013%, 98.707581%)" offset="0.382812"/><stop stop-opacity="1" stop-color="rgb(18.235779%, 80.506897%, 98.68927%)" offset="0.390625"/><stop stop-opacity="1" stop-color="rgb(18.025208%, 80.175781%, 98.670959%)" offset="0.398437"/><stop stop-opacity="1" stop-color="rgb(17.816162%, 79.846191%, 98.652649%)" offset="0.40625"/><stop stop-opacity="1" stop-color="rgb(17.605591%, 79.515076%, 98.634338%)" offset="0.414062"/><stop stop-opacity="1" stop-color="rgb(17.39502%, 79.18396%, 98.614502%)" offset="0.421875"/><stop stop-opacity="1" stop-color="rgb(17.184448%, 78.85437%, 98.596191%)" offset="0.429687"/><stop stop-opacity="1" stop-color="rgb(16.975403%, 78.523254%, 98.577881%)" offset="0.4375"/><stop stop-opacity="1" stop-color="rgb(16.764832%, 78.192139%, 98.55957%)" offset="0.445312"/><stop stop-opacity="1" stop-color="rgb(16.55426%, 77.862549%, 98.54126%)" offset="0.453125"/><stop stop-opacity="1" stop-color="rgb(16.345215%, 77.531433%, 98.521423%)" offset="0.460937"/><stop stop-opacity="1" stop-color="rgb(16.134644%, 77.200317%, 98.503113%)" offset="0.46875"/><stop stop-opacity="1" stop-color="rgb(15.924072%, 76.870728%, 98.484802%)" offset="0.476562"/><stop stop-opacity="1" stop-color="rgb(15.713501%, 76.539612%, 98.466492%)" offset="0.484375"/><stop stop-opacity="1" stop-color="rgb(15.504456%, 76.208496%, 98.448181%)" offset="0.492187"/><stop stop-opacity="1" stop-color="rgb(15.293884%, 75.878906%, 98.428345%)" offset="0.5"/><stop stop-opacity="1" stop-color="rgb(15.083313%, 75.547791%, 98.410034%)" offset="0.507812"/><stop stop-opacity="1" stop-color="rgb(14.874268%, 75.218201%, 98.391724%)" offset="0.515625"/><stop stop-opacity="1" stop-color="rgb(14.663696%, 74.887085%, 98.373413%)" offset="0.523437"/><stop stop-opacity="1" stop-color="rgb(14.453125%, 74.555969%, 98.355103%)" offset="0.53125"/><stop stop-opacity="1" stop-color="rgb(14.24408%, 74.226379%, 98.336792%)" offset="0.539062"/><stop stop-opacity="1" stop-color="rgb(14.033508%, 73.895264%, 98.316956%)" offset="0.546875"/><stop stop-opacity="1" stop-color="rgb(13.822937%, 73.564148%, 98.298645%)" offset="0.554688"/><stop stop-opacity="1" stop-color="rgb(13.612366%, 73.234558%, 98.280334%)" offset="0.5625"/><stop stop-opacity="1" stop-color="rgb(13.40332%, 72.903442%, 98.262024%)" offset="0.570312"/><stop stop-opacity="1" stop-color="rgb(13.192749%, 72.572327%, 98.243713%)" offset="0.578125"/><stop stop-opacity="1" stop-color="rgb(12.982178%, 72.242737%, 98.223877%)" offset="0.585938"/><stop stop-opacity="1" stop-color="rgb(12.773132%, 71.911621%, 98.205566%)" offset="0.59375"/><stop stop-opacity="1" stop-color="rgb(12.562561%, 71.580505%, 98.187256%)" offset="0.601563"/><stop stop-opacity="1" stop-color="rgb(12.35199%, 71.250916%, 98.168945%)" offset="0.609375"/><stop stop-opacity="1" stop-color="rgb(12.141418%, 70.9198%, 98.150635%)" offset="0.617188"/><stop stop-opacity="1" stop-color="rgb(11.932373%, 70.588684%, 98.132324%)" offset="0.625"/><stop stop-opacity="1" stop-color="rgb(11.721802%, 70.259094%, 98.112488%)" offset="0.632812"/><stop stop-opacity="1" stop-color="rgb(11.51123%, 69.927979%, 98.094177%)" offset="0.640625"/><stop stop-opacity="1" stop-color="rgb(11.302185%, 69.596863%, 98.075867%)" offset="0.648437"/><stop stop-opacity="1" stop-color="rgb(11.091614%, 69.267273%, 98.057556%)" offset="0.65625"/><stop stop-opacity="1" stop-color="rgb(10.881042%, 68.936157%, 98.039246%)" offset="0.664062"/><stop stop-opacity="1" stop-color="rgb(10.670471%, 68.605042%, 98.019409%)" offset="0.671875"/><stop stop-opacity="1" stop-color="rgb(10.461426%, 68.275452%, 98.001099%)" offset="0.679688"/><stop stop-opacity="1" stop-color="rgb(10.250854%, 67.944336%, 97.982788%)" offset="0.6875"/><stop stop-opacity="1" stop-color="rgb(10.040283%, 67.61322%, 97.964478%)" offset="0.695312"/><stop stop-opacity="1" stop-color="rgb(9.831238%, 67.28363%, 97.946167%)" offset="0.703125"/><stop stop-opacity="1" stop-color="rgb(9.620667%, 66.952515%, 97.926331%)" offset="0.710938"/><stop stop-opacity="1" stop-color="rgb(9.410095%, 66.621399%, 97.90802%)" offset="0.71875"/><stop stop-opacity="1" stop-color="rgb(9.20105%, 66.291809%, 97.889709%)" offset="0.726563"/><stop stop-opacity="1" stop-color="rgb(8.990479%, 65.960693%, 97.871399%)" offset="0.734375"/><stop stop-opacity="1" stop-color="rgb(8.779907%, 65.631104%, 97.853088%)" offset="0.742188"/><stop stop-opacity="1" stop-color="rgb(8.569336%, 65.299988%, 97.834778%)" offset="0.75"/><stop stop-opacity="1" stop-color="rgb(8.360291%, 64.968872%, 97.814941%)" offset="0.757812"/><stop stop-opacity="1" stop-color="rgb(8.149719%, 64.639282%, 97.796631%)" offset="0.765625"/><stop stop-opacity="1" stop-color="rgb(7.939148%, 64.308167%, 97.77832%)" offset="0.773437"/><stop stop-opacity="1" stop-color="rgb(7.730103%, 63.977051%, 97.76001%)" offset="0.78125"/><stop stop-opacity="1" stop-color="rgb(7.519531%, 63.647461%, 97.741699%)" offset="0.789062"/><stop stop-opacity="1" stop-color="rgb(7.30896%, 63.316345%, 97.721863%)" offset="0.796875"/><stop stop-opacity="1" stop-color="rgb(7.098389%, 62.985229%, 97.703552%)" offset="0.804688"/><stop stop-opacity="1" stop-color="rgb(6.889343%, 62.65564%, 97.685242%)" offset="0.8125"/><stop stop-opacity="1" stop-color="rgb(6.678772%, 62.324524%, 97.666931%)" offset="0.820312"/><stop stop-opacity="1" stop-color="rgb(6.468201%, 61.993408%, 97.648621%)" offset="0.828125"/><stop stop-opacity="1" stop-color="rgb(6.259155%, 61.663818%, 97.63031%)" offset="0.835938"/><stop stop-opacity="1" stop-color="rgb(6.048584%, 61.332703%, 97.610474%)" offset="0.84375"/><stop stop-opacity="1" stop-color="rgb(5.838013%, 61.001587%, 97.592163%)" offset="0.851563"/><stop stop-opacity="1" stop-color="rgb(5.628967%, 60.671997%, 97.573853%)" offset="0.859375"/><stop stop-opacity="1" stop-color="rgb(5.418396%, 60.340881%, 97.555542%)" offset="0.867188"/><stop stop-opacity="1" stop-color="rgb(5.207825%, 60.009766%, 97.537231%)" offset="0.875"/><stop stop-opacity="1" stop-color="rgb(4.997253%, 59.680176%, 97.517395%)" offset="0.882812"/><stop stop-opacity="1" stop-color="rgb(4.788208%, 59.34906%, 97.499084%)" offset="0.890625"/><stop stop-opacity="1" stop-color="rgb(4.577637%, 59.017944%, 97.480774%)" offset="0.898437"/><stop stop-opacity="1" stop-color="rgb(4.367065%, 58.688354%, 97.462463%)" offset="0.90625"/><stop stop-opacity="1" stop-color="rgb(4.15802%, 58.357239%, 97.444153%)" offset="0.914062"/><stop stop-opacity="1" stop-color="rgb(3.947449%, 58.026123%, 97.424316%)" offset="0.921875"/><stop stop-opacity="1" stop-color="rgb(3.736877%, 57.696533%, 97.406006%)" offset="0.929688"/><stop stop-opacity="1" stop-color="rgb(3.526306%, 57.365417%, 97.387695%)" offset="0.9375"/><stop stop-opacity="1" stop-color="rgb(3.317261%, 57.034302%, 97.369385%)" offset="0.945312"/><stop stop-opacity="1" stop-color="rgb(3.106689%, 56.704712%, 97.351074%)" offset="0.953125"/><stop stop-opacity="1" stop-color="rgb(2.896118%, 56.373596%, 97.332764%)" offset="0.960938"/><stop stop-opacity="1" stop-color="rgb(2.687073%, 56.044006%, 97.312927%)" offset="0.96875"/><stop stop-opacity="1" stop-color="rgb(2.476501%, 55.712891%, 97.294617%)" offset="0.976563"/><stop stop-opacity="1" stop-color="rgb(2.26593%, 55.381775%, 97.276306%)" offset="0.984375"/><stop stop-opacity="1" stop-color="rgb(2.059937%, 55.058289%, 97.257996%)" offset="1"/></linearGradient><clipPath id="28abd7def2"><path d="M 215.699219 135.601562 L 219.449219 135.601562 L 219.449219 139.351562 L 215.699219 139.351562 Z M 215.699219 135.601562 " clip-rule="nonzero"/></clipPath><clipPath id="de0a353907"><path d="M 0.699219 0.601562 L 4.449219 0.601562 L 4.449219 4.351562 L 0.699219 4.351562 Z M 0.699219 0.601562 " clip-rule="nonzero"/></clipPath><clipPath id="b56b303f82"><rect x="0" width="5" y="0" height="5"/></clipPath></defs><g clip-path="url(#02d5456a01)"><g clip-path="url(#9bc8447943)"><g transform="matrix(1, 0, 0, 1, 10, 10)"><g clip-path="url(#665ed53c75)"><g clip-path="url(#a11c29f449)"><g clip-path="url(#774f5be6a5)"><path fill="url(#65449771c3)" d="M 354.371094 0.628906 L 0.625 0.628906 L 0.625 354.371094 L 354.371094 354.371094 Z M 354.371094 0.628906 " fill-rule="nonzero"/></g></g></g></g></g></g><g clip-path="url(#3430fa0a3f)"><g clip-path="url(#914d148f4a)"><path stroke-linecap="butt" transform="matrix(0, 0.75, -0.75, 0, 364.369668, 10.627499)" fill="none" stroke-linejoin="miter" d="M 124.996668 -0.0019013 L 346.658127 -0.0019013 C 379.809168 -0.0019013 411.600835 13.169974 435.043543 36.612682 C 458.486252 60.05539 471.658127 91.847057 471.658127 124.998099 L 471.658127 346.659558 C 471.658127 379.810599 458.486252 411.602266 435.043543 435.044974 C 411.600835 458.487683 379.809168 471.654349 346.658127 471.654349 L 124.996668 471.654349 C 91.845626 471.654349 60.053959 458.487683 36.611251 435.044974 C 13.168543 411.602266 0.00187593 379.810599 0.00187593 346.659558 L 0.00187593 124.998099 C 0.00187593 91.847057 13.168543 60.05539 36.611251 36.612682 C 60.053959 13.169974 91.845626 -0.0019013 124.996668 -0.0019013 Z M 124.996668 -0.0019013 " stroke="#20b8f0" stroke-width="6" stroke-opacity="1" stroke-miterlimit="4"/></g></g><path fill="#000000" d="M 186.296875 60.542969 C 187.355469 60.539062 188.410156 60.523438 189.46875 60.511719 C 200.976562 60.433594 212.03125 63.429688 222.269531 68.601562 L 223.3125 69.125 C 232.328125 73.738281 240.433594 79.929688 246.566406 88.039062 L 247.636719 89.425781 C 261.273438 107.457031 262.832031 130.183594 264.351562 151.933594 C 266.910156 188.507812 274.78125 221.351562 295.792969 251.972656 C 303.707031 263.511719 303.707031 263.511719 303.113281 270.054688 C 302.230469 273.847656 299.996094 277.007812 296.742188 279.152344 C 289.574219 282.96875 282.644531 281.359375 275.214844 279.261719 C 269.675781 277.71875 263.941406 276.960938 258.496094 279.332031 L 257.347656 279.824219 C 249.816406 283.492188 243.183594 291.542969 238.203125 298.132812 C 237.132812 299.394531 235.949219 300.410156 234.691406 301.476562 C 233.792969 302.269531 232.980469 303.097656 232.15625 303.960938 C 223.820312 312.375 212.496094 319.15625 201.0625 322.183594 L 200.171875 322.421875 C 185.71875 326.027344 170.566406 322.617188 157.769531 315.558594 L 156.570312 314.898438 C 151.53125 312 146.992188 308.472656 142.75 304.511719 C 142.171875 304.011719 141.59375 303.515625 141.007812 303.019531 C 137.492188 299.953125 134.296875 296.570312 131.265625 293.023438 C 122.265625 282.539062 122.265625 282.539062 109.617188 278.003906 L 108.609375 277.917969 C 104.066406 277.707031 99.707031 279.101562 95.363281 280.285156 C 89.726562 281.796875 84.292969 282.4375 78.890625 279.628906 C 75.246094 277.300781 72.988281 275.007812 71.761719 270.773438 C 70.9375 263.851562 74.503906 258.964844 78.335938 253.488281 C 87.015625 241.03125 93.910156 228.246094 99.011719 213.945312 L 99.4375 212.785156 C 104.09375 200 106.644531 186.304688 108.273438 172.824219 L 108.382812 171.886719 C 109.347656 163.890625 109.960938 155.871094 110.578125 147.84375 C 112.558594 121.996094 116.449219 96.539062 137.222656 78.636719 C 142.386719 74.296875 148.015625 70.648438 154.121094 67.789062 C 155.171875 67.3125 155.171875 67.3125 156 66.390625 C 156.824219 66.09375 156.824219 66.09375 157.851562 65.8125 C 159.769531 65.269531 161.632812 64.648438 163.511719 63.992188 C 166.03125 63.128906 168.566406 62.449219 171.160156 61.863281 L 172.121094 61.644531 C 176.8125 60.632812 181.515625 60.554688 186.296875 60.542969 M 207.25 120.289062 C 203.925781 124.820312 203.113281 129.363281 203.714844 134.867188 C 204.765625 139.339844 207.5 142.988281 211.308594 145.527344 C 215.242188 146.429688 219.082031 146.496094 222.628906 144.410156 C 226.3125 141.707031 228.164062 138.007812 228.894531 133.542969 C 229.304688 128.453125 228.117188 123.890625 224.921875 119.847656 C 222.574219 117.710938 220.089844 116.699219 216.96875 116.3125 L 215.863281 116.175781 C 212.535156 116.59375 209.625 117.898438 207.25 120.289062 M 149.375 119.847656 C 146.148438 123.582031 145.125 127.511719 145.246094 132.378906 C 145.632812 136.433594 146.824219 140.378906 149.816406 143.261719 C 153.347656 145.9375 156.472656 146.246094 160.863281 145.910156 C 163.835938 145.191406 166.097656 143.472656 167.929688 141.054688 C 170.453125 136.742188 171.242188 131.910156 170 127.082031 C 168.820312 123.125 166.882812 119.523438 163.15625 117.445312 C 158.179688 115.277344 153.386719 116.371094 149.375 119.847656 M 170.710938 171.59375 C 167.792969 175.25 165.671875 179.273438 164.839844 183.90625 L 164.632812 184.957031 C 163.628906 191.757812 165.789062 198.171875 169.765625 203.621094 C 170.316406 204.328125 170.878906 205.027344 171.453125 205.71875 L 172.296875 206.738281 L 173.0625 207.628906 C 174.886719 210.664062 173.789062 213.824219 173.015625 217.035156 L 172.65625 218.574219 C 172.28125 220.191406 171.902344 221.804688 171.519531 223.417969 C 171.144531 225.03125 170.765625 226.644531 170.390625 228.257812 C 170.15625 229.257812 169.921875 230.261719 169.683594 231.261719 C 168.234375 236.628906 168.234375 236.628906 169.699219 241.78125 C 171.601562 243.792969 173.933594 244.324219 176.617188 244.511719 C 177.96875 244.542969 179.320312 244.554688 180.671875 244.546875 L 182.171875 244.550781 C 183.214844 244.550781 184.257812 244.550781 185.304688 244.542969 C 186.894531 244.542969 188.480469 244.542969 190.070312 244.550781 C 191.085938 244.550781 192.109375 244.550781 193.125 244.546875 L 194.550781 244.554688 C 199.671875 244.5625 199.671875 244.5625 204.160156 242.386719 L 204.902344 241.789062 C 206.304688 239.628906 205.964844 237.195312 205.488281 234.792969 C 205.269531 233.808594 205.042969 232.824219 204.804688 231.839844 L 204.449219 230.25 C 204.074219 228.578125 203.6875 226.910156 203.300781 225.242188 C 202.917969 223.574219 202.535156 221.902344 202.15625 220.234375 C 201.921875 219.199219 201.683594 218.164062 201.441406 217.128906 C 199.933594 210.464844 199.933594 210.464844 201.285156 207.761719 C 201.902344 207.019531 202.535156 206.285156 203.203125 205.59375 C 207.621094 200.929688 209.84375 194.886719 210.039062 188.460938 C 209.746094 181.625 207.117188 174.902344 202.09375 170.160156 C 192.484375 162.398438 179.371094 162.308594 170.710938 171.59375 " fill-opacity="0.2" fill-rule="nonzero"/><g clip-path="url(#81ec971bc5)"><g clip-path="url(#48163b72bf)"><path fill="url(#aa742e602c)" d="M 70.9375 54.175781 L 70.9375 319.773438 L 303.707031 319.773438 L 303.707031 54.175781 Z M 70.9375 54.175781 " fill-rule="nonzero"/></g></g><path fill="#ffffff" d="M 263.355469 271.75 L 264.679688 272.191406 Z M 107.40625 271.75 L 108.734375 272.191406 Z M 216.96875 138.332031 L 217.410156 139.214844 L 216.527344 138.773438 Z M 176.765625 316.8125 L 177.648438 317.253906 Z M 268.65625 271.75 L 269.542969 272.191406 Z M 190.019531 237.289062 L 190.90625 237.730469 Z M 185.601562 158.652344 L 186.488281 159.09375 Z M 250.101562 85.757812 L 250.988281 86.203125 Z M 250.101562 85.757812 " fill-opacity="1" fill-rule="nonzero"/><g clip-path="url(#28abd7def2)"><g transform="matrix(1, 0, 0, 1, 215, 135)"><g clip-path="url(#b56b303f82)"><g clip-path="url(#de0a353907)"><path fill="#005fbf" d="M 0.699219 0.601562 L 4.449219 0.601562 L 4.449219 4.351562 L 0.699219 4.351562 Z M 0.699219 0.601562 " fill-opacity="1" fill-rule="nonzero"/></g></g></g></g></svg>