<svg xmlns="http://www.w3.org/2000/svg" xmlns:xlink="http://www.w3.org/1999/xlink" width="500" zoomAndPan="magnify" viewBox="0 0 375 374.999991" height="500" preserveAspectRatio="xMidYMid meet" version="1.0"><path fill="#ffffff" d="M 219.820312 224.265625 C 209.03125 238.375 203.640625 253.628906 203.640625 270.027344 C 203.640625 289.527344 211.835938 304.675781 228.226562 315.472656 C 237.765625 321.902344 248.605469 325.121094 260.75 325.121094 C 272.886719 325.121094 283.421875 322.730469 292.347656 317.953125 C 309.148438 309.238281 318.59375 294.613281 320.675781 274.070312 C 320.875 272.621094 320.976562 271.164062 320.976562 269.707031 C 320.976562 262.035156 318.847656 253.742188 314.601562 244.824219 C 310.34375 235.894531 303.449219 227.695312 293.910156 220.222656 L 237.875 176.019531 C 225.632812 166.480469 219.515625 154.132812 219.515625 138.984375 C 219.515625 123.839844 224.386719 111.027344 234.132812 100.554688 C 243.886719 90.074219 257.066406 84.828125 273.671875 84.828125 C 281.96875 84.828125 290.996094 85.867188 300.753906 87.933594 L 313.207031 87.933594 L 313.828125 126.230469 L 310.707031 126.230469 C 310.503906 116.261719 306.921875 108.425781 299.964844 102.71875 C 293.019531 97.011719 284.300781 94.160156 273.820312 94.160156 C 263.351562 94.160156 254.582031 97.640625 247.523438 104.597656 C 240.464844 111.546875 236.9375 120.46875 236.9375 131.363281 C 236.9375 142.25 241.5 151.328125 250.628906 158.601562 L 308.222656 204.042969 C 331.046875 222.09375 342.457031 243.878906 342.457031 269.40625 C 342.457031 288.496094 334.878906 304.882812 319.734375 318.574219 C 306.667969 330.410156 289.234375 336.332031 267.445312 336.332031 C 254.160156 336.332031 242.339844 333.835938 231.96875 328.847656 C 212.457031 319.71875 200.730469 304.15625 196.796875 282.160156 C 196.164062 278.839844 195.855469 274.636719 195.855469 269.558594 C 195.855469 264.480469 197.304688 257.535156 200.203125 248.714844 C 203.109375 239.890625 208.714844 231.011719 217.015625 222.082031 Z M 219.820312 224.265625 " fill-opacity="1" fill-rule="nonzero"/><path fill="#ffffff" d="M 311.5625 284.515625 C 312.578125 284.515625 313.59375 284.515625 314.601562 284.515625 L 314.601562 287.050781 C 309.890625 287.722656 304.632812 288.054688 298.828125 288.054688 C 293.019531 288.054688 285.863281 286.789062 277.363281 284.265625 C 268.859375 281.746094 261.15625 277.035156 254.257812 270.132812 C 240.125 255.992188 231.542969 237.644531 228.515625 215.089844 L 213.109375 102.742188 L 160.601562 221.402344 C 155.875 231.671875 153.015625 240.257812 152.007812 247.160156 L 149.492188 247.160156 L 84.09375 105.007812 L 72.984375 230.496094 C 72.648438 233.347656 73.53125 235.875 75.636719 238.066406 C 77.738281 240.257812 80.054688 241.355469 82.585938 241.355469 L 86.613281 241.355469 L 86.613281 243.621094 L 37.644531 243.621094 L 37.644531 241.101562 L 41.671875 241.101562 C 46.222656 241.101562 50.222656 239.71875 53.671875 236.941406 C 57.113281 234.15625 59.261719 230.492188 60.113281 225.949219 L 76.023438 88.089844 C 61.210938 58.972656 43.449219 44.410156 22.742188 44.410156 C 20.894531 44.410156 18.960938 44.5 16.9375 44.679688 L 16.9375 42.144531 C 21.480469 40.96875 25.183594 40.382812 28.046875 40.382812 C 30.910156 40.382812 34.023438 40.511719 37.390625 40.769531 C 40.757812 41.015625 44.714844 41.816406 49.257812 43.167969 C 53.796875 44.511719 58.085938 46.484375 62.128906 49.089844 C 66.164062 51.699219 69.699219 54.394531 72.734375 57.179688 C 75.761719 59.957031 78.625 63.019531 81.308594 66.375 C 85.859375 72.441406 89.480469 78.253906 92.167969 83.8125 L 153.015625 215.59375 L 220.929688 63.355469 L 223.210938 63.355469 L 246.6875 212.824219 C 250.21875 236.386719 257.835938 254.226562 269.527344 266.339844 C 281.226562 278.457031 295.242188 284.515625 311.5625 284.515625 Z M 311.5625 284.515625 " fill-opacity="1" fill-rule="nonzero"/></svg>
