<svg xmlns="http://www.w3.org/2000/svg" xmlns:xlink="http://www.w3.org/1999/xlink" width="1000" zoomAndPan="magnify" viewBox="0 0 750 262.499992" height="350" preserveAspectRatio="xMidYMid meet" version="1.0"><defs><g/><clipPath id="5307c1af93"><path d="M 171.800781 236.347656 L 609 236.347656 L 609 260 L 171.800781 260 Z M 171.800781 236.347656 " clip-rule="nonzero"/></clipPath></defs><g fill="#2a45f8" fill-opacity="1"><g transform="translate(4.813708, 215.241222)"><g><path d="M 167.96875 -64.3125 C 168.394531 -64.445312 169.097656 -64.515625 170.078125 -64.515625 C 172.191406 -64.515625 173.8125 -63.8125 174.9375 -62.40625 C 176.070312 -61 176.640625 -59.09375 176.640625 -56.6875 C 176.640625 -52.320312 175.789062 -48.90625 174.09375 -46.4375 C 172.40625 -43.96875 169.867188 -42.171875 166.484375 -41.046875 C 159.992188 -38.921875 153.082031 -37.859375 145.75 -37.859375 C 139.550781 -37.859375 133.703125 -38.707031 128.203125 -40.40625 C 124.109375 -33.78125 119.59375 -26.941406 114.65625 -19.890625 C 109.019531 -11.847656 104.191406 -6.34375 100.171875 -3.375 C 96.148438 -0.414062 91.597656 1.0625 86.515625 1.0625 C 80.878906 1.0625 76.613281 -1.125 73.71875 -5.5 C 70.832031 -9.875 69.035156 -17.066406 68.328125 -27.078125 L 67.265625 -42.515625 C 62.898438 -30.671875 58.988281 -21.644531 55.53125 -15.4375 C 52.070312 -9.238281 48.613281 -4.9375 45.15625 -2.53125 C 41.707031 -0.132812 37.65625 1.0625 33 1.0625 C 27.21875 1.0625 22.671875 -1.191406 19.359375 -5.703125 C 16.046875 -10.222656 13.960938 -17.347656 13.109375 -27.078125 C 11.421875 -46.816406 10.578125 -64.09375 10.578125 -78.90625 L 10.578125 -86.3125 C 10.710938 -90.96875 11.976562 -94.210938 14.375 -96.046875 C 16.78125 -97.878906 20.378906 -98.796875 25.171875 -98.796875 C 28.835938 -98.796875 31.550781 -97.984375 33.3125 -96.359375 C 35.082031 -94.734375 35.96875 -92.019531 35.96875 -88.21875 C 35.96875 -72 36.953125 -50.914062 38.921875 -24.96875 C 48.515625 -45.132812 57.332031 -66.144531 65.375 -88 C 66.914062 -92.226562 68.78125 -95.082031 70.96875 -96.5625 C 73.15625 -98.050781 75.800781 -98.796875 78.90625 -98.796875 C 82.71875 -98.796875 85.363281 -98.019531 86.84375 -96.46875 C 88.320312 -94.914062 89.0625 -92.164062 89.0625 -88.21875 C 89.0625 -72 90.046875 -50.914062 92.015625 -24.96875 C 100.484375 -37.519531 106.832031 -47.53125 111.0625 -55 C 108.945312 -59.09375 107.890625 -63.957031 107.890625 -69.59375 C 107.890625 -74.394531 108.945312 -79.050781 111.0625 -83.5625 C 113.175781 -88.070312 116.066406 -91.738281 119.734375 -94.5625 C 123.398438 -97.382812 127.5625 -98.796875 132.21875 -98.796875 C 136.3125 -98.796875 139.625 -97.347656 142.15625 -94.453125 C 144.695312 -91.566406 145.96875 -87.375 145.96875 -81.875 C 145.96875 -75.519531 144.273438 -68.253906 140.890625 -60.078125 C 146.242188 -60.359375 153.363281 -61.414062 162.25 -63.25 Z M 167.96875 -64.3125 "/></g></g></g><g fill="#2a45f8" fill-opacity="1"><g transform="translate(152.892515, 215.241222)"><g><path d="M 104.5 -47.171875 C 106.332031 -47.171875 107.773438 -46.320312 108.828125 -44.625 C 109.890625 -42.9375 110.421875 -40.613281 110.421875 -37.65625 C 110.421875 -32.007812 109.082031 -27.640625 106.40625 -24.546875 C 101.1875 -18.191406 93.816406 -12.332031 84.296875 -6.96875 C 74.773438 -1.613281 64.585938 1.0625 53.734375 1.0625 C 38.921875 1.0625 27.425781 -2.957031 19.25 -11 C 11.070312 -19.039062 6.984375 -30.039062 6.984375 -44 C 6.984375 -53.726562 9.023438 -62.785156 13.109375 -71.171875 C 17.203125 -79.566406 22.878906 -86.234375 30.140625 -91.171875 C 37.410156 -96.109375 45.628906 -98.578125 54.796875 -98.578125 C 62.972656 -98.578125 69.53125 -96.144531 74.46875 -91.28125 C 79.40625 -86.414062 81.875 -79.820312 81.875 -71.5 C 81.875 -61.769531 78.378906 -53.414062 71.390625 -46.4375 C 64.410156 -39.457031 52.601562 -33.921875 35.96875 -29.828125 C 39.488281 -23.335938 46.1875 -20.09375 56.0625 -20.09375 C 62.40625 -20.09375 69.628906 -22.3125 77.734375 -26.75 C 85.847656 -31.195312 92.867188 -37.019531 98.796875 -44.21875 C 100.484375 -46.1875 102.382812 -47.171875 104.5 -47.171875 Z M 51.1875 -77.84375 C 45.96875 -77.84375 41.5625 -74.8125 37.96875 -68.75 C 34.375 -62.6875 32.578125 -55.351562 32.578125 -46.75 L 32.578125 -46.328125 C 40.898438 -48.304688 47.457031 -51.269531 52.25 -55.21875 C 57.039062 -59.164062 59.4375 -63.75 59.4375 -68.96875 C 59.4375 -71.644531 58.695312 -73.789062 57.21875 -75.40625 C 55.738281 -77.03125 53.726562 -77.84375 51.1875 -77.84375 Z M 51.1875 -77.84375 "/></g></g></g><g fill="#2a45f8" fill-opacity="1"><g transform="translate(236.028183, 215.241222)"><g><path d="M 122.703125 -64.9375 C 124.535156 -64.9375 125.941406 -64.019531 126.921875 -62.1875 C 127.910156 -60.351562 128.40625 -58.03125 128.40625 -55.21875 C 128.40625 -51.6875 127.910156 -48.96875 126.921875 -47.0625 C 125.941406 -45.164062 124.394531 -43.863281 122.28125 -43.15625 C 113.8125 -40.195312 104.5 -38.503906 94.34375 -38.078125 C 91.53125 -26.367188 86.207031 -16.914062 78.375 -9.71875 C 70.550781 -2.53125 61.914062 1.0625 52.46875 1.0625 C 38.21875 1.0625 27.847656 -4.363281 21.359375 -15.21875 C 14.878906 -26.082031 11.640625 -41.8125 11.640625 -62.40625 C 11.640625 -80.601562 13.894531 -100.382812 18.40625 -121.75 C 22.914062 -143.113281 29.503906 -161.304688 38.171875 -176.328125 C 46.847656 -191.347656 57.179688 -198.859375 69.171875 -198.859375 C 75.660156 -198.859375 80.878906 -196.070312 84.828125 -190.5 C 88.773438 -184.925781 90.75 -177.695312 90.75 -168.8125 C 90.75 -157.25 88.5625 -145.753906 84.1875 -134.328125 C 79.820312 -122.910156 72.5625 -110.925781 62.40625 -98.375 C 71.851562 -97.664062 79.535156 -93.75 85.453125 -86.625 C 91.378906 -79.507812 94.910156 -70.734375 96.046875 -60.296875 C 102.671875 -60.710938 110.566406 -62.117188 119.734375 -64.515625 C 120.578125 -64.796875 121.566406 -64.9375 122.703125 -64.9375 Z M 64.3125 -177.90625 C 61.488281 -177.90625 58.421875 -173.707031 55.109375 -165.3125 C 51.796875 -156.925781 48.726562 -145.539062 45.90625 -131.15625 C 43.082031 -116.769531 40.96875 -101.046875 39.5625 -83.984375 C 48.863281 -101.046875 56.300781 -116.097656 61.875 -129.140625 C 67.445312 -142.191406 70.234375 -153.796875 70.234375 -163.953125 C 70.234375 -168.460938 69.703125 -171.914062 68.640625 -174.3125 C 67.585938 -176.707031 66.144531 -177.90625 64.3125 -177.90625 Z M 53.3125 -21.359375 C 57.6875 -21.359375 61.5625 -23.191406 64.9375 -26.859375 C 68.320312 -30.523438 70.582031 -35.816406 71.71875 -42.734375 C 67.34375 -45.691406 63.988281 -49.566406 61.65625 -54.359375 C 59.332031 -59.160156 58.171875 -64.238281 58.171875 -69.59375 C 58.171875 -71.570312 58.453125 -74.253906 59.015625 -77.640625 L 58.390625 -77.640625 C 52.609375 -77.640625 47.773438 -74.78125 43.890625 -69.0625 C 40.015625 -63.351562 38.078125 -55.707031 38.078125 -46.125 C 38.078125 -38.082031 39.59375 -31.941406 42.625 -27.703125 C 45.65625 -23.472656 49.21875 -21.359375 53.3125 -21.359375 Z M 53.3125 -21.359375 "/></g></g></g><g fill="#2a45f8" fill-opacity="1"><g transform="translate(341.551033, 212.971352)"><g><path d="M 79.5625 -58.8125 C 86.207031 -57.394531 91.546875 -54.097656 95.578125 -48.921875 C 99.609375 -43.753906 101.625 -37.847656 101.625 -31.203125 C 101.625 -21.617188 98.273438 -14.019531 91.578125 -8.40625 C 84.878906 -2.800781 75.535156 0 63.546875 0 L 10.125 0 L 10.125 -114.6875 L 61.75 -114.6875 C 73.40625 -114.6875 82.523438 -112.015625 89.109375 -106.671875 C 95.703125 -101.335938 99 -94.097656 99 -84.953125 C 99 -78.203125 97.226562 -72.59375 93.6875 -68.125 C 90.15625 -63.65625 85.445312 -60.550781 79.5625 -58.8125 Z M 38.0625 -68.296875 L 56.359375 -68.296875 C 60.929688 -68.296875 64.441406 -69.300781 66.890625 -71.3125 C 69.347656 -73.320312 70.578125 -76.289062 70.578125 -80.21875 C 70.578125 -84.132812 69.347656 -87.128906 66.890625 -89.203125 C 64.441406 -91.273438 60.929688 -92.3125 56.359375 -92.3125 L 38.0625 -92.3125 Z M 58.65625 -22.546875 C 63.332031 -22.546875 66.953125 -23.609375 69.515625 -25.734375 C 72.078125 -27.859375 73.359375 -30.9375 73.359375 -34.96875 C 73.359375 -38.988281 72.019531 -42.144531 69.34375 -44.4375 C 66.675781 -46.726562 63.003906 -47.875 58.328125 -47.875 L 38.0625 -47.875 L 38.0625 -22.546875 Z M 58.65625 -22.546875 "/></g></g></g><g fill="#2a45f8" fill-opacity="1"><g transform="translate(449.205464, 212.971352)"><g><path d="M 108.484375 -114.6875 L 68.78125 -37.90625 L 68.78125 0 L 40.84375 0 L 40.84375 -37.90625 L 1.140625 -114.6875 L 32.84375 -114.6875 L 55.0625 -66.65625 L 77.109375 -114.6875 Z M 108.484375 -114.6875 "/></g></g></g><g fill="#2a45f8" fill-opacity="1"><g transform="translate(558.820206, 212.971352)"><g><path d="M 92.640625 -114.6875 L 92.640625 -92.3125 L 62.25 -92.3125 L 62.25 0 L 34.3125 0 L 34.3125 -92.3125 L 3.921875 -92.3125 L 3.921875 -114.6875 Z M 92.640625 -114.6875 "/></g></g></g><g fill="#2a45f8" fill-opacity="1"><g transform="translate(655.366141, 212.971352)"><g><path d="M 38.0625 -92.3125 L 38.0625 -69.109375 L 75.484375 -69.109375 L 75.484375 -47.546875 L 38.0625 -47.546875 L 38.0625 -22.375 L 80.375 -22.375 L 80.375 0 L 10.125 0 L 10.125 -114.6875 L 80.375 -114.6875 L 80.375 -92.3125 Z M 38.0625 -92.3125 "/></g></g></g><g clip-path="url(#5307c1af93)"><path fill="#2a45f8" d="M 604.128906 248.828125 C 579.285156 248.304688 554.429688 247.914062 529.578125 247.664062 C 531.425781 247.222656 533.039062 246.496094 534.128906 245.289062 C 534.796875 244.546875 534.4375 243.417969 534.109375 242.640625 C 533.839844 242 533.214844 240.558594 532.042969 240.351562 C 510.136719 236.484375 487.113281 236.789062 464.59375 236.996094 C 441.101562 237.214844 417.613281 237.820312 394.160156 238.808594 C 347.363281 240.773438 300.996094 244.574219 254.707031 249.347656 C 241.597656 250.699219 228.476562 252.03125 215.347656 253.324219 C 209.011719 253.949219 202.671875 254.542969 196.324219 255.089844 C 193.019531 255.371094 189.722656 255.679688 186.421875 255.96875 C 184.785156 256.113281 183.144531 256.285156 181.507812 256.4375 C 180.957031 256.488281 180.40625 256.542969 179.859375 256.589844 C 178.910156 256.679688 177.960938 256.757812 177.007812 256.828125 C 176.222656 257.015625 175.445312 257.226562 174.6875 257.449219 C 173.847656 257.632812 172.484375 257.996094 172.058594 258.539062 C 171.84375 258.8125 171.824219 258.992188 172.058594 259.074219 C 172.054688 259.078125 172.042969 259.082031 172.03125 259.085938 C 173.046875 259.261719 173.773438 259.472656 174.824219 259.464844 C 175.402344 259.460938 175.988281 259.441406 176.566406 259.425781 C 178.023438 259.394531 179.480469 259.355469 180.941406 259.320312 C 181.492188 259.300781 182.046875 259.28125 182.597656 259.261719 C 184.863281 259.445312 187.121094 259.664062 189.359375 259.789062 C 189.585938 259.804688 189.113281 259.238281 188.828125 259.210938 C 188.347656 259.15625 187.867188 259.105469 187.386719 259.058594 C 188.433594 259.011719 189.480469 258.964844 190.53125 258.921875 C 196.582031 258.679688 202.640625 258.207031 208.667969 257.777344 C 220.585938 256.933594 232.460938 255.878906 244.332031 254.804688 C 267.941406 252.671875 291.511719 250.382812 315.195312 248.597656 C 362.039062 245.070312 409.105469 242.863281 456.269531 242.226562 C 475.878906 241.964844 496.066406 241.398438 515.648438 243.121094 C 509.921875 243.058594 504.199219 243.019531 498.472656 243.054688 C 485.144531 243.132812 471.820312 243.5 458.523438 244.078125 C 434.363281 245.128906 410.304688 246.894531 386.3125 248.953125 C 368.363281 249.917969 350.484375 251.410156 332.855469 253.808594 C 330.917969 254.070312 332.652344 259.128906 334.785156 258.921875 C 349.867188 257.441406 364.980469 255.984375 380.125 254.648438 C 400.226562 253.347656 420.441406 252.734375 440.667969 252.5 C 476.210938 252.085938 511.800781 252.402344 547.339844 252.832031 C 560.703125 252.992188 574.066406 253.195312 587.433594 253.4375 C 587.628906 254.035156 587.992188 254.460938 588.511719 254.4375 C 595.058594 254.171875 601.625 254.179688 608.171875 253.839844 C 610.519531 253.714844 606.425781 248.875 604.128906 248.828125 " fill-opacity="1" fill-rule="nonzero"/></g><g fill="#2a45f8" fill-opacity="1"><g transform="translate(502.341986, 76.940116)"><g><path d="M 7 -4.140625 C 5.925781 -3.472656 4.847656 -3.0625 3.765625 -2.90625 C 2.691406 -2.757812 1.707031 -2.875 0.8125 -3.25 C -0.0703125 -3.625 -0.796875 -4.242188 -1.359375 -5.109375 L 0.890625 -6.515625 C 1.429688 -5.804688 2.132812 -5.363281 3 -5.1875 C 3.875 -5.019531 4.84375 -5.265625 5.90625 -5.921875 C 6.894531 -6.535156 7.523438 -7.273438 7.796875 -8.140625 C 8.066406 -9.003906 7.957031 -9.828125 7.46875 -10.609375 C 7.082031 -11.234375 6.597656 -11.628906 6.015625 -11.796875 C 5.429688 -11.960938 4.820312 -11.988281 4.1875 -11.875 C 3.5625 -11.757812 2.738281 -11.550781 1.71875 -11.25 C 0.5 -10.863281 -0.519531 -10.609375 -1.34375 -10.484375 C -2.164062 -10.359375 -2.988281 -10.453125 -3.8125 -10.765625 C -4.632812 -11.078125 -5.359375 -11.738281 -5.984375 -12.75 C -6.523438 -13.625 -6.78125 -14.539062 -6.75 -15.5 C -6.71875 -16.46875 -6.410156 -17.382812 -5.828125 -18.25 C -5.253906 -19.125 -4.445312 -19.882812 -3.40625 -20.53125 C -1.894531 -21.46875 -0.421875 -21.859375 1.015625 -21.703125 C 2.453125 -21.546875 3.617188 -20.882812 4.515625 -19.71875 L 2.21875 -18.28125 C 1.75 -18.851562 1.082031 -19.195312 0.21875 -19.3125 C -0.644531 -19.425781 -1.546875 -19.191406 -2.484375 -18.609375 C -3.359375 -18.054688 -3.929688 -17.378906 -4.203125 -16.578125 C -4.484375 -15.773438 -4.367188 -14.96875 -3.859375 -14.15625 C -3.503906 -13.570312 -3.039062 -13.195312 -2.46875 -13.03125 C -1.90625 -12.875 -1.320312 -12.84375 -0.71875 -12.9375 C -0.113281 -13.039062 0.707031 -13.25 1.75 -13.5625 C 2.976562 -13.925781 4.003906 -14.164062 4.828125 -14.28125 C 5.660156 -14.40625 6.492188 -14.3125 7.328125 -14 C 8.160156 -13.695312 8.894531 -13.035156 9.53125 -12.015625 C 10.019531 -11.222656 10.269531 -10.347656 10.28125 -9.390625 C 10.300781 -8.441406 10.035156 -7.5 9.484375 -6.5625 C 8.929688 -5.632812 8.101562 -4.828125 7 -4.140625 Z M 7 -4.140625 "/></g></g></g><g fill="#2a45f8" fill-opacity="1"><g transform="translate(514.306586, 69.347044)"><g><path d="M 6.5625 -22.53125 L 7.234375 -20.625 L 2.375 -18.890625 L 8.109375 -2.90625 L 5.765625 -2.0625 L 0.03125 -18.046875 L -4.859375 -16.296875 L -5.53125 -18.203125 Z M 6.5625 -22.53125 "/></g></g></g><g fill="#2a45f8" fill-opacity="1"><g transform="translate(526.227922, 64.617232)"><g><path d="M 2.3125 -19.390625 L 3.703125 -7.4375 C 3.890625 -5.757812 4.4375 -4.5625 5.34375 -3.84375 C 6.257812 -3.125 7.445312 -2.851562 8.90625 -3.03125 C 10.351562 -3.195312 11.441406 -3.734375 12.171875 -4.640625 C 12.898438 -5.546875 13.171875 -6.835938 12.984375 -8.515625 L 11.59375 -20.46875 L 14.046875 -20.75 L 15.4375 -8.828125 C 15.613281 -7.253906 15.445312 -5.894531 14.9375 -4.75 C 14.4375 -3.601562 13.675781 -2.707031 12.65625 -2.0625 C 11.644531 -1.414062 10.472656 -1.019531 9.140625 -0.875 C 7.804688 -0.71875 6.570312 -0.835938 5.4375 -1.234375 C 4.300781 -1.628906 3.359375 -2.328125 2.609375 -3.328125 C 1.867188 -4.328125 1.410156 -5.613281 1.234375 -7.1875 L -0.15625 -19.109375 Z M 2.3125 -19.390625 "/></g></g></g><g fill="#2a45f8" fill-opacity="1"><g transform="translate(542.297932, 62.415298)"><g><path d="M 10.6875 -17.640625 C 12.738281 -17.335938 14.453125 -16.691406 15.828125 -15.703125 C 17.210938 -14.722656 18.203125 -13.460938 18.796875 -11.921875 C 19.398438 -10.390625 19.5625 -8.660156 19.28125 -6.734375 C 19 -4.816406 18.351562 -3.207031 17.34375 -1.90625 C 16.332031 -0.613281 15.023438 0.289062 13.421875 0.8125 C 11.816406 1.34375 9.988281 1.457031 7.9375 1.15625 L 2.078125 0.296875 L 4.828125 -18.5 Z M 8.234375 -0.875 C 10.648438 -0.519531 12.59375 -0.890625 14.0625 -1.984375 C 15.53125 -3.078125 16.4375 -4.785156 16.78125 -7.109375 C 17.113281 -9.441406 16.726562 -11.359375 15.625 -12.859375 C 14.53125 -14.367188 12.785156 -15.300781 10.390625 -15.65625 L 6.984375 -16.15625 L 4.828125 -1.375 Z M 8.234375 -0.875 "/></g></g></g><g fill="#2a45f8" fill-opacity="1"><g transform="translate(559.712798, 65.386676)"><g><path d="M 10.40625 -16.546875 L 4.34375 1.453125 L 1.984375 0.671875 L 8.046875 -17.328125 Z M 10.40625 -16.546875 "/></g></g></g><g fill="#2a45f8" fill-opacity="1"><g transform="translate(564.823856, 66.184252)"><g><path d="M 9.203125 5.46875 C 7.671875 4.59375 6.476562 3.4375 5.625 2 C 4.769531 0.570312 4.34375 -0.992188 4.34375 -2.703125 C 4.351562 -4.410156 4.816406 -6.070312 5.734375 -7.6875 C 6.648438 -9.289062 7.84375 -10.523438 9.3125 -11.390625 C 10.78125 -12.253906 12.347656 -12.6875 14.015625 -12.6875 C 15.691406 -12.6875 17.296875 -12.25 18.828125 -11.375 C 20.367188 -10.488281 21.566406 -9.328125 22.421875 -7.890625 C 23.273438 -6.453125 23.695312 -4.882812 23.6875 -3.1875 C 23.6875 -1.488281 23.222656 0.164062 22.296875 1.78125 C 21.367188 3.40625 20.175781 4.648438 18.71875 5.515625 C 17.257812 6.378906 15.691406 6.804688 14.015625 6.796875 C 12.347656 6.796875 10.742188 6.351562 9.203125 5.46875 Z M 10.265625 3.609375 C 11.421875 4.265625 12.613281 4.585938 13.84375 4.578125 C 15.070312 4.566406 16.234375 4.210938 17.328125 3.515625 C 18.429688 2.828125 19.359375 1.828125 20.109375 0.515625 C 20.859375 -0.804688 21.25 -2.109375 21.28125 -3.390625 C 21.320312 -4.679688 21.035156 -5.851562 20.421875 -6.90625 C 19.816406 -7.96875 18.929688 -8.832031 17.765625 -9.5 C 16.597656 -10.164062 15.398438 -10.488281 14.171875 -10.46875 C 12.953125 -10.457031 11.796875 -10.109375 10.703125 -9.421875 C 9.609375 -8.742188 8.6875 -7.742188 7.9375 -6.421875 C 7.1875 -5.109375 6.789062 -3.800781 6.75 -2.5 C 6.707031 -1.207031 6.992188 -0.03125 7.609375 1.03125 C 8.234375 2.09375 9.117188 2.953125 10.265625 3.609375 Z M 10.265625 3.609375 "/></g></g></g></svg>